<svg version="1.1" id="Layer_1" xmlns="http://www.w3.org/2000/svg" xmlns:xlink="http://www.w3.org/1999/xlink" x="0px" y="0px"
	 width="100%" viewBox="0 0 502 451" enable-background="new 0 0 502 451" xml:space="preserve">
<path fill="#FE3D3D" opacity="1.000000" stroke="none" 
	d="
M219.000000,1.000000 
	C238.687561,1.000000 258.375122,1.000000 278.731262,1.360640 
	C293.121918,4.016390 307.023376,5.551492 320.534485,8.740309 
	C374.361572,21.444260 418.848877,49.417198 454.267822,91.909485 
	C479.568207,122.262505 494.890839,156.943253 500.131561,196.103897 
	C500.976471,202.417480 502.038391,208.702026 503.000000,215.000000 
	C503.000000,226.687561 503.000000,238.375122 502.649170,250.730927 
	C499.214417,275.825256 492.618103,299.235962 480.615265,320.790771 
	C448.485199,378.490326 399.387451,415.659546 337.686218,436.880127 
	C310.978485,446.065521 283.231140,450.213684 254.517334,450.100525 
	C252.437103,450.073090 250.765549,450.125702 248.630188,450.123047 
	C244.444168,450.092682 240.721970,450.117615 236.581009,450.043732 
	C234.018005,449.668762 231.881195,449.292175 229.728302,449.132263 
	C210.810867,447.727081 192.226593,444.501862 174.062302,438.986206 
	C121.380211,422.988922 77.257172,394.203461 43.332775,350.587463 
	C22.269819,323.507202 8.731009,293.000488 3.784670,258.867462 
	C3.014871,253.555359 1.935969,248.288040 1.000001,243.000000 
	C1.000000,231.645767 1.000000,220.291550 1.355761,208.253876 
	C3.753028,184.250839 9.125379,161.800873 18.677504,140.347473 
	C32.649197,108.967972 53.872486,83.287460 80.089310,61.501415 
	C114.850273,32.615223 154.037674,12.942629 198.745880,4.852882 
	C205.508224,3.629265 212.249161,2.287251 219.000000,1.000000 
M431.007385,81.492172 
	C409.440643,60.224400 384.736145,43.653984 356.883209,31.725071 
	C332.406097,21.241961 306.875183,15.371977 280.393646,12.821860 
	C251.167908,10.007481 222.258713,11.239406 193.596817,17.567122 
	C149.492722,27.304028 111.210190,48.128731 78.712852,79.295425 
	C33.381535,122.770607 10.432749,175.432861 14.946050,238.919891 
	C17.610048,276.393463 30.317286,310.380768 52.913326,340.141846 
	C97.562645,398.949127 157.391647,430.718842 230.814575,436.831085 
	C258.863373,439.166077 286.632751,436.308258 313.995239,429.922485 
	C366.571228,417.652435 411.738129,392.301300 446.438019,350.687317 
	C485.328125,304.048218 499.880981,249.986267 489.540009,189.967636 
	C482.257629,147.700851 462.044464,111.969643 431.007385,81.492172 
z"/>
<path fill="#FFFEFE" opacity="1.000000" stroke="none" 
	d="
M1.000001,243.468658 
	C1.935969,248.288040 3.014871,253.555359 3.784670,258.867462 
	C8.731009,293.000488 22.269819,323.507202 43.332775,350.587463 
	C77.257172,394.203461 121.380211,422.988922 174.062302,438.986206 
	C192.226593,444.501862 210.810867,447.727081 229.728302,449.132263 
	C231.881195,449.292175 234.018005,449.668762 236.581100,450.353302 
	C236.999954,451.174469 236.999985,451.587250 237.000000,452.000000 
	C158.410721,452.000000 79.821457,452.000000 1.000000,452.000000 
	C1.000000,382.645935 1.000000,313.291626 1.000001,243.468658 
z"/>
<path fill="#FFFEFE" opacity="1.000000" stroke="none" 
	d="
M254.926041,450.180603 
	C283.231140,450.213684 310.978485,446.065521 337.686218,436.880127 
	C399.387451,415.659546 448.485199,378.490326 480.615265,320.790771 
	C492.618103,299.235962 499.214417,275.825256 502.649170,251.199585 
	C503.000000,317.934540 503.000000,384.869049 503.000000,452.000000 
	C420.979218,452.000000 338.958252,452.000000 256.366638,451.756409 
	C255.505997,451.068726 255.216019,450.624664 254.926041,450.180603 
z"/>
<path fill="#FFFEFE" opacity="1.000000" stroke="none" 
	d="
M503.000000,214.531342 
	C502.038391,208.702026 500.976471,202.417480 500.131561,196.103897 
	C494.890839,156.943253 479.568207,122.262505 454.267822,91.909485 
	C418.848877,49.417198 374.361572,21.444260 320.534485,8.740309 
	C307.023376,5.551492 293.121918,4.016390 279.199951,1.360640 
	C353.592041,1.000000 428.184052,1.000000 503.000000,1.000000 
	C503.000000,72.020737 503.000000,143.041718 503.000000,214.531342 
z"/>
<path fill="#FFFEFE" opacity="1.000000" stroke="none" 
	d="
M218.531342,1.000000 
	C212.249161,2.287251 205.508224,3.629265 198.745880,4.852882 
	C154.037674,12.942629 114.850273,32.615223 80.089310,61.501415 
	C53.872486,83.287460 32.649197,108.967972 18.677504,140.347473 
	C9.125379,161.800873 3.753028,184.250839 1.355761,207.785217 
	C1.000000,139.071075 1.000000,70.142143 1.000000,1.000000 
	C73.354088,1.000000 145.708389,1.000000 218.531342,1.000000 
z"/>
<path fill="#FFFEFE" opacity="1.000000" stroke="none" 
	d="
M237.460632,452.000000 
	C236.999985,451.587250 236.999954,451.174469 236.999847,450.452148 
	C240.721970,450.117615 244.444168,450.092682 248.577606,450.425018 
	C248.992554,451.188202 248.996277,451.594086 249.000000,452.000000 
	C245.307098,452.000000 241.614182,452.000000 237.460632,452.000000 
z"/>
<path fill="#DEDEDE" opacity="1.000000" stroke="none" 
	d="
M249.437500,452.000000 
	C248.996277,451.594086 248.992554,451.188202 249.041428,450.480286 
	C250.765549,450.125702 252.437103,450.073090 254.517334,450.100525 
	C255.216019,450.624664 255.505997,451.068726 255.897980,451.756409 
	C253.958328,452.000000 251.916672,452.000000 249.437500,452.000000 
z"/>
<path fill="#FEFBFB" opacity="1.000000" stroke="none" 
	d="
M431.257446,81.742355 
	C462.044464,111.969643 482.257629,147.700851 489.540009,189.967636 
	C499.880981,249.986267 485.328125,304.048218 446.438019,350.687317 
	C411.738129,392.301300 366.571228,417.652435 313.995239,429.922485 
	C286.632751,436.308258 258.863373,439.166077 230.814575,436.831085 
	C157.391647,430.718842 97.562645,398.949127 52.913326,340.141846 
	C30.317286,310.380768 17.610048,276.393463 14.946050,238.919891 
	C10.432749,175.432861 33.381535,122.770607 78.712852,79.295425 
	C111.210190,48.128731 149.492722,27.304028 193.596817,17.567122 
	C222.258713,11.239406 251.167908,10.007481 280.393646,12.821860 
	C306.875183,15.371977 332.406097,21.241961 356.883209,31.725071 
	C384.736145,43.653984 409.440643,60.224400 431.257446,81.742355 
M196.961288,420.678131 
	C227.834305,426.600342 258.741730,429.032013 290.134338,424.292725 
	C325.960419,418.884094 359.693512,407.993622 389.634064,387.417358 
	C440.434845,352.505249 474.792175,306.730255 481.292267,243.485764 
	C484.064941,216.508575 481.380035,190.012207 472.578644,164.308762 
	C458.414673,122.944382 431.606049,91.108086 396.350067,66.306557 
	C346.087830,30.948570 289.922211,17.220268 228.874771,22.860447 
	C191.567352,26.307281 156.686371,37.473782 124.829857,57.111282 
	C67.381424,92.524551 31.580570,142.229401 25.724106,210.963867 
	C22.709066,246.349899 29.732285,279.974579 46.806301,310.927795 
	C79.567184,370.319519 131.130356,404.701874 196.961288,420.678131 
z"/>
<path fill="#FE3C3C" opacity="1.000000" stroke="none" 
	d="
M196.566940,420.522736 
	C131.130356,404.701874 79.567184,370.319519 46.806301,310.927795 
	C29.732285,279.974579 22.709066,246.349899 25.724106,210.963867 
	C31.580570,142.229401 67.381424,92.524551 124.829857,57.111282 
	C156.686371,37.473782 191.567352,26.307281 228.874771,22.860447 
	C289.922211,17.220268 346.087830,30.948570 396.350067,66.306557 
	C431.606049,91.108086 458.414673,122.944382 472.578644,164.308762 
	C481.380035,190.012207 484.064941,216.508575 481.292267,243.485764 
	C474.792175,306.730255 440.434845,352.505249 389.634064,387.417358 
	C359.693512,407.993622 325.960419,418.884094 290.134338,424.292725 
	C258.741730,429.032013 227.834305,426.600342 196.566940,420.522736 
M229.911606,105.669922 
	C235.425430,133.503265 240.907211,161.343018 246.474579,189.165649 
	C247.947098,196.524490 249.683441,203.830536 251.298630,211.160828 
	C251.763046,211.182709 252.227448,211.204590 252.691864,211.226471 
	C253.451096,208.988190 254.395233,206.793808 254.938965,204.504333 
	C258.004028,191.598022 260.959076,178.665649 263.979004,165.748550 
	C266.282867,155.894272 268.518158,146.022049 270.987152,136.208923 
	C273.081879,127.883408 279.172302,122.336647 286.256104,121.880219 
	C294.039032,121.378746 299.626373,125.195908 303.308289,133.753967 
	C304.417023,136.331039 305.308075,139.032990 305.998993,141.753876 
	C315.136627,177.737930 324.195282,213.742050 333.337921,249.724838 
	C335.346985,257.631958 339.405945,260.601440 347.153290,258.703766 
	C350.539825,257.874268 353.704224,255.058807 356.319977,252.485077 
	C358.633636,250.208557 359.919556,246.923737 361.876892,244.242966 
	C374.664398,226.729111 404.251099,227.649109 415.530060,245.922119 
	C419.537262,252.414215 425.259216,255.946884 432.838104,255.876404 
	C441.471313,255.796097 450.105713,255.374725 458.729401,254.911530 
	C464.342224,254.610077 467.837708,252.081482 467.893127,246.430450 
	C468.044312,231.017044 468.376495,215.492813 466.811554,200.199295 
	C463.840973,171.169571 452.704437,145.027664 435.187378,121.714462 
	C414.985565,94.828140 388.544250,75.435936 359.229004,59.721378 
	C314.971649,35.997005 267.936371,28.256117 218.396713,36.316944 
	C194.028702,40.281979 170.687256,47.849335 148.268616,58.121105 
	C103.783264,78.503403 70.297249,110.158676 50.016918,155.080093 
	C35.870754,186.414169 32.719212,219.251953 37.108459,253.054794 
	C37.717197,257.742889 40.259556,260.040741 45.138111,259.988708 
	C54.967392,259.883820 64.799065,260.029907 74.629433,259.991699 
	C82.658249,259.960510 90.475006,258.151886 96.522690,252.964203 
	C104.634079,246.006256 112.191437,246.943176 120.715347,251.728470 
	C126.753311,255.118149 133.163483,257.995026 139.683350,260.330780 
	C145.375656,262.370117 150.174194,259.951904 153.007187,254.551300 
	C154.152130,252.368652 155.054520,249.990601 155.649139,247.597565 
	C166.122345,205.447083 176.493973,163.271347 186.979797,121.124023 
	C189.539368,110.836021 191.945740,100.467674 195.320450,90.438393 
	C197.914108,82.730232 203.689926,79.627785 211.642944,79.989029 
	C219.162292,80.330559 224.040619,84.364227 226.297531,91.380722 
	C227.712509,95.779724 228.598862,100.348763 229.911606,105.669922 
M310.051544,408.674072 
	C313.570557,407.738251 317.105133,406.856995 320.606232,405.858490 
	C378.463867,389.357056 422.707397,355.808563 450.607178,301.871796 
	C452.520233,298.173401 453.930969,294.215118 455.887115,289.650055 
	C441.273499,289.650055 427.820953,289.599823 414.368988,289.667053 
	C404.829834,289.714722 397.682587,286.175751 393.755157,277.004333 
	C392.430573,273.911163 390.385223,271.126648 388.301086,267.573364 
	C386.621796,271.117279 385.312805,273.964783 383.932373,276.777222 
	C379.438171,285.933563 372.475525,292.227539 362.035980,292.630981 
	C348.738464,293.144867 335.399139,292.913330 322.087128,292.604156 
	C312.358582,292.378174 307.203400,286.478455 304.947113,277.420227 
	C300.339783,258.923004 295.624634,240.452606 290.930695,221.977051 
	C290.521515,220.366486 289.940796,218.799484 289.016632,215.872101 
	C287.605255,219.319534 286.491272,221.351791 285.933228,223.526703 
	C283.873596,231.553802 281.984955,239.624985 280.055542,247.685226 
	C275.732391,265.745850 271.516876,283.833008 267.057098,301.859772 
	C265.521210,308.067871 261.642700,312.508240 255.184448,314.025879 
	C245.142990,316.385559 236.235748,310.816925 234.026291,300.163483 
	C227.826889,270.271545 221.975250,240.307602 215.948746,210.379669 
	C214.010818,200.755753 211.955505,191.155472 209.953903,181.544388 
	C209.532745,181.491287 209.111588,181.438171 208.690430,181.385071 
	C207.465439,184.388779 205.867859,187.297668 205.075485,190.411484 
	C199.638260,211.778229 194.366562,233.187103 189.047821,254.583984 
	C185.366226,269.394714 181.818512,284.240143 177.978043,299.009460 
	C175.081085,310.150391 168.734604,314.895874 158.385101,314.149384 
	C151.412491,313.646393 147.333160,308.933319 144.289810,303.487213 
	C141.308411,298.151978 137.057739,295.117401 131.393372,293.322327 
	C125.871597,291.572449 120.440819,289.483490 115.096573,287.241821 
	C110.809731,285.443695 107.096756,285.856049 103.449059,288.703644 
	C96.918007,293.802155 89.329277,294.670959 81.305130,294.431396 
	C71.377708,294.135010 61.434704,294.360474 50.461128,294.360474 
	C51.875282,297.718231 52.859951,300.455841 54.144299,303.044830 
	C69.563271,334.126007 92.649780,358.128998 121.544800,377.053131 
	C159.887878,402.165131 201.596451,416.101746 247.594223,416.363312 
	C268.440918,416.481842 288.984497,413.767792 310.051544,408.674072 
M309.549255,208.958435 
	C304.397522,186.838867 299.356812,164.692245 293.981964,142.627014 
	C293.111908,139.055222 290.758087,135.844818 289.090118,132.467377 
	C288.377228,132.488785 287.664337,132.510208 286.951447,132.531631 
	C285.235626,135.391418 282.710999,138.046509 281.927521,141.142242 
	C272.772064,177.318192 263.862000,213.556366 254.932816,249.789368 
	C253.530869,255.478088 252.356140,261.222809 251.076340,266.941620 
	C250.645721,266.947205 250.215103,266.952789 249.784470,266.958374 
	C249.202011,264.969940 248.505661,263.006989 248.053787,260.989319 
	C237.254501,212.768753 226.566025,164.523010 215.569763,116.347519 
	C214.497849,111.651428 211.556992,107.381935 209.483658,102.914429 
	C208.819290,102.988945 208.154922,103.063461 207.490540,103.137978 
	C205.406937,107.407036 202.502045,111.468811 201.364334,115.976601 
	C186.920212,173.206711 172.735947,230.502396 158.462158,287.775574 
	C157.488678,291.681610 157.844284,295.209137 161.464752,299.295807 
	C163.915344,296.145355 167.332077,293.601959 168.172668,290.385345 
	C176.352005,259.086212 184.098022,227.673828 191.972260,196.294891 
	C197.068207,175.987427 202.172043,155.681946 207.272339,135.375565 
	C209.263367,137.591049 210.402466,139.928909 210.960587,142.398071 
	C222.003326,191.251465 232.914261,240.134857 244.085022,288.958832 
	C245.021805,293.053192 247.613480,296.768951 249.436295,300.660614 
	C250.197433,300.638245 250.958572,300.615875 251.719711,300.593506 
	C253.484146,296.986389 256.014526,293.556305 256.895386,289.744965 
	C266.381866,248.698654 275.603088,207.591034 284.928314,166.507324 
	C285.249969,165.090179 285.900024,163.747574 286.397003,162.370224 
	C288.115356,164.025635 288.687286,165.511322 289.043304,167.047058 
	C297.694031,204.362534 306.263580,241.697128 315.098022,278.968964 
	C315.629303,281.210388 318.045013,284.382690 319.925507,284.641693 
	C323.908569,285.190277 323.862457,280.996796 324.593689,278.244385 
	C324.866089,277.219086 324.469635,275.971649 324.223785,274.859650 
	C319.425476,253.159241 314.604279,231.463898 309.549255,208.958435 
z"/>
<path fill="#FFFEFE" opacity="1.000000" stroke="none" 
	d="
M229.817001,105.255722 
	C228.598862,100.348763 227.712509,95.779724 226.297531,91.380722 
	C224.040619,84.364227 219.162292,80.330559 211.642944,79.989029 
	C203.689926,79.627785 197.914108,82.730232 195.320450,90.438393 
	C191.945740,100.467674 189.539368,110.836021 186.979797,121.124023 
	C176.493973,163.271347 166.122345,205.447083 155.649139,247.597565 
	C155.054520,249.990601 154.152130,252.368652 153.007187,254.551300 
	C150.174194,259.951904 145.375656,262.370117 139.683350,260.330780 
	C133.163483,257.995026 126.753311,255.118149 120.715347,251.728470 
	C112.191437,246.943176 104.634079,246.006256 96.522690,252.964203 
	C90.475006,258.151886 82.658249,259.960510 74.629433,259.991699 
	C64.799065,260.029907 54.967392,259.883820 45.138111,259.988708 
	C40.259556,260.040741 37.717197,257.742889 37.108459,253.054794 
	C32.719212,219.251953 35.870754,186.414169 50.016918,155.080093 
	C70.297249,110.158676 103.783264,78.503403 148.268616,58.121105 
	C170.687256,47.849335 194.028702,40.281979 218.396713,36.316944 
	C267.936371,28.256117 314.971649,35.997005 359.229004,59.721378 
	C388.544250,75.435936 414.985565,94.828140 435.187378,121.714462 
	C452.704437,145.027664 463.840973,171.169571 466.811554,200.199295 
	C468.376495,215.492813 468.044312,231.017044 467.893127,246.430450 
	C467.837708,252.081482 464.342224,254.610077 458.729401,254.911530 
	C450.105713,255.374725 441.471313,255.796097 432.838104,255.876404 
	C425.259216,255.946884 419.537262,252.414215 415.530060,245.922119 
	C404.251099,227.649109 374.664398,226.729111 361.876892,244.242966 
	C359.919556,246.923737 358.633636,250.208557 356.319977,252.485077 
	C353.704224,255.058807 350.539825,257.874268 347.153290,258.703766 
	C339.405945,260.601440 335.346985,257.631958 333.337921,249.724838 
	C324.195282,213.742050 315.136627,177.737930 305.998993,141.753876 
	C305.308075,139.032990 304.417023,136.331039 303.308289,133.753967 
	C299.626373,125.195908 294.039032,121.378746 286.256104,121.880219 
	C279.172302,122.336647 273.081879,127.883408 270.987152,136.208923 
	C268.518158,146.022049 266.282867,155.894272 263.979004,165.748550 
	C260.959076,178.665649 258.004028,191.598022 254.938965,204.504333 
	C254.395233,206.793808 253.451096,208.988190 252.691864,211.226471 
	C252.227448,211.204590 251.763046,211.182709 251.298630,211.160828 
	C249.683441,203.830536 247.947098,196.524490 246.474579,189.165649 
	C240.907211,161.343018 235.425430,133.503265 229.817001,105.255722 
z"/>
<path fill="#FFFEFE" opacity="1.000000" stroke="none" 
	d="
M309.647369,408.774750 
	C288.984497,413.767792 268.440918,416.481842 247.594223,416.363312 
	C201.596451,416.101746 159.887878,402.165131 121.544800,377.053131 
	C92.649780,358.128998 69.563271,334.126007 54.144299,303.044830 
	C52.859951,300.455841 51.875282,297.718231 50.461128,294.360474 
	C61.434704,294.360474 71.377708,294.135010 81.305130,294.431396 
	C89.329277,294.670959 96.918007,293.802155 103.449059,288.703644 
	C107.096756,285.856049 110.809731,285.443695 115.096573,287.241821 
	C120.440819,289.483490 125.871597,291.572449 131.393372,293.322327 
	C137.057739,295.117401 141.308411,298.151978 144.289810,303.487213 
	C147.333160,308.933319 151.412491,313.646393 158.385101,314.149384 
	C168.734604,314.895874 175.081085,310.150391 177.978043,299.009460 
	C181.818512,284.240143 185.366226,269.394714 189.047821,254.583984 
	C194.366562,233.187103 199.638260,211.778229 205.075485,190.411484 
	C205.867859,187.297668 207.465439,184.388779 208.690430,181.385071 
	C209.111588,181.438171 209.532745,181.491287 209.953903,181.544388 
	C211.955505,191.155472 214.010818,200.755753 215.948746,210.379669 
	C221.975250,240.307602 227.826889,270.271545 234.026291,300.163483 
	C236.235748,310.816925 245.142990,316.385559 255.184448,314.025879 
	C261.642700,312.508240 265.521210,308.067871 267.057098,301.859772 
	C271.516876,283.833008 275.732391,265.745850 280.055542,247.685226 
	C281.984955,239.624985 283.873596,231.553802 285.933228,223.526703 
	C286.491272,221.351791 287.605255,219.319534 289.016632,215.872101 
	C289.940796,218.799484 290.521515,220.366486 290.930695,221.977051 
	C295.624634,240.452606 300.339783,258.923004 304.947113,277.420227 
	C307.203400,286.478455 312.358582,292.378174 322.087128,292.604156 
	C335.399139,292.913330 348.738464,293.144867 362.035980,292.630981 
	C372.475525,292.227539 379.438171,285.933563 383.932373,276.777222 
	C385.312805,273.964783 386.621796,271.117279 388.301086,267.573364 
	C390.385223,271.126648 392.430573,273.911163 393.755157,277.004333 
	C397.682587,286.175751 404.829834,289.714722 414.368988,289.667053 
	C427.820953,289.599823 441.273499,289.650055 455.887115,289.650055 
	C453.930969,294.215118 452.520233,298.173401 450.607178,301.871796 
	C422.707397,355.808563 378.463867,389.357056 320.606232,405.858490 
	C317.105133,406.856995 313.570557,407.738251 309.647369,408.774750 
z"/>
<path fill="#FEFAFA" opacity="1.000000" stroke="none" 
	d="
M309.668518,209.362976 
	C314.604279,231.463898 319.425476,253.159241 324.223785,274.859650 
	C324.469635,275.971649 324.866089,277.219086 324.593689,278.244385 
	C323.862457,280.996796 323.908569,285.190277 319.925507,284.641693 
	C318.045013,284.382690 315.629303,281.210388 315.098022,278.968964 
	C306.263580,241.697128 297.694031,204.362534 289.043304,167.047058 
	C288.687286,165.511322 288.115356,164.025635 286.397003,162.370224 
	C285.900024,163.747574 285.249969,165.090179 284.928314,166.507324 
	C275.603088,207.591034 266.381866,248.698654 256.895386,289.744965 
	C256.014526,293.556305 253.484146,296.986389 251.719711,300.593506 
	C250.958572,300.615875 250.197433,300.638245 249.436295,300.660614 
	C247.613480,296.768951 245.021805,293.053192 244.085022,288.958832 
	C232.914261,240.134857 222.003326,191.251465 210.960587,142.398071 
	C210.402466,139.928909 209.263367,137.591049 207.272339,135.375565 
	C202.172043,155.681946 197.068207,175.987427 191.972260,196.294891 
	C184.098022,227.673828 176.352005,259.086212 168.172668,290.385345 
	C167.332077,293.601959 163.915344,296.145355 161.464752,299.295807 
	C157.844284,295.209137 157.488678,291.681610 158.462158,287.775574 
	C172.735947,230.502396 186.920212,173.206711 201.364334,115.976601 
	C202.502045,111.468811 205.406937,107.407036 207.490540,103.137978 
	C208.154922,103.063461 208.819290,102.988945 209.483658,102.914429 
	C211.556992,107.381935 214.497849,111.651428 215.569763,116.347519 
	C226.566025,164.523010 237.254501,212.768753 248.053787,260.989319 
	C248.505661,263.006989 249.202011,264.969940 249.784470,266.958374 
	C250.215103,266.952789 250.645721,266.947205 251.076340,266.941620 
	C252.356140,261.222809 253.530869,255.478088 254.932816,249.789368 
	C263.862000,213.556366 272.772064,177.318192 281.927521,141.142242 
	C282.710999,138.046509 285.235626,135.391418 286.951447,132.531631 
	C287.664337,132.510208 288.377228,132.488785 289.090118,132.467377 
	C290.758087,135.844818 293.111908,139.055222 293.981964,142.627014 
	C299.356812,164.692245 304.397522,186.838867 309.668518,209.362976 
z"/>
</svg>