<svg version="1.1" id="Layer_1" xmlns="http://www.w3.org/2000/svg" xmlns:xlink="http://www.w3.org/1999/xlink" x="0px" y="0px"
	 width="100%" viewBox="0 0 272 176" enable-background="new 0 0 272 176" xml:space="preserve">
<path fill="#000000" opacity="1.000000" stroke="none" 
	d="
M149.867035,175.170166 
	C105.182770,180.921875 64.461548,151.217560 56.600040,107.524460 
	C48.219406,60.946144 78.370148,18.179230 125.335800,10.571865 
	C171.424133,3.106606 213.006500,34.211597 220.434280,77.881996 
	C227.613998,120.093956 203.259674,159.868149 162.447220,172.314529 
	C158.482376,173.523666 154.348984,174.180099 149.867035,175.170166 
M94.369003,113.914558 
	C91.515511,119.142128 90.171387,124.692261 90.312874,130.686462 
	C90.494453,138.378876 91.974548,139.995331 99.785751,140.003723 
	C118.949028,140.024307 138.112350,140.010345 157.275650,140.005356 
	C164.607635,140.003448 171.939774,140.012436 179.271561,139.968750 
	C182.995178,139.946579 185.811890,138.489944 186.551788,134.538071 
	C189.861511,116.860756 175.225647,98.670929 157.281097,98.338226 
	C145.786819,98.125130 134.282761,98.426414 122.789154,98.195206 
	C110.507881,97.948158 101.315544,103.092934 94.369003,113.914558 
M156.795685,79.237495 
	C162.378403,71.231354 162.926392,62.965813 157.950928,54.491348 
	C152.972916,46.012604 142.002167,41.415890 133.083893,43.981358 
	C123.011238,46.878899 115.279442,56.600838 115.377472,66.245361 
	C115.465019,74.858253 122.223701,84.313751 130.496460,87.397041 
	C139.841507,90.879982 149.059814,88.190315 156.795685,79.237495 
z"/>
</svg>