<svg version="1.1" id="Layer_1" xmlns="http://www.w3.org/2000/svg" xmlns:xlink="http://www.w3.org/1999/xlink" x="0px" y="0px"
	 width="100%" viewBox="0 0 502 451" enable-background="new 0 0 502 451" xml:space="preserve">
<path fill="#FE3D3D" opacity="1.000000" stroke="none" 
	d="
M219.000000,1.000001 
	C238.687561,1.000000 258.375122,1.000000 278.734192,1.358534 
	C293.143829,4.024386 307.059021,5.580840 320.588898,8.771204 
	C374.329346,21.443272 418.739838,49.375412 454.134155,91.759254 
	C479.501678,122.136223 494.859924,156.859146 500.122223,196.076096 
	C500.970642,202.398941 502.035278,208.692764 503.000000,215.000000 
	C503.000000,226.687561 503.000000,238.375122 502.650330,250.732574 
	C499.971497,262.587616 498.378296,273.987640 495.185883,284.920746 
	C481.345520,332.320282 451.804291,368.600616 412.958801,397.734039 
	C368.894867,430.781189 318.898926,447.585815 263.548492,450.083710 
	C260.038910,450.072784 256.981201,450.132019 253.570023,450.110260 
	C252.497757,450.083344 251.778946,450.137421 250.591125,450.136780 
	C230.565933,450.342468 211.204987,448.047638 192.231750,443.745880 
	C139.259857,431.735565 93.589531,406.359039 56.575710,366.412964 
	C28.221411,335.812408 9.739667,300.085449 3.714653,258.397858 
	C2.969511,253.242157 1.912496,248.131516 1.000000,243.000000 
	C1.000000,231.979111 1.000000,220.958206 1.343741,209.232712 
	C3.561130,184.845795 9.022234,162.086472 18.702997,140.323563 
	C32.662304,108.942245 53.896759,83.274933 80.108871,61.494465 
	C114.864914,32.614597 154.048355,12.946486 198.749985,4.858942 
	C205.511383,3.635648 212.250549,2.289387 219.000000,1.000001 
M216.078491,13.460384 
	C208.568039,14.826959 200.999039,15.932606 193.556549,17.602163 
	C142.609634,29.030972 99.740311,54.486282 65.133377,93.371597 
	C28.512402,134.519928 11.019261,182.626694 14.853558,238.045029 
	C17.201708,271.983582 27.811237,303.183075 46.727310,331.256653 
	C74.260750,372.119385 111.056091,402.003204 157.015060,420.036194 
	C194.431488,434.717285 233.217224,439.999786 273.386200,436.255798 
	C299.704254,433.802795 325.184235,428.410187 349.822174,418.930817 
	C385.555542,405.182526 416.827393,384.515076 442.114075,355.864471 
	C478.512299,314.624176 495.745758,266.307159 492.079529,210.952560 
	C490.228241,183.001205 483.329681,156.335587 469.325165,132.207611 
	C425.709412,57.063133 358.725464,19.057259 273.291168,12.333777 
	C254.653091,10.867004 235.741379,12.877298 216.078491,13.460384 
z"/>
<path fill="#F5F4F4" opacity="1.000000" stroke="none" 
	d="
M1.000000,243.468658 
	C1.912496,248.131516 2.969511,253.242157 3.714653,258.397858 
	C9.739667,300.085449 28.221411,335.812408 56.575710,366.412964 
	C93.589531,406.359039 139.259857,431.735565 192.231750,443.745880 
	C211.204987,448.047638 230.565933,450.342468 250.363342,450.300842 
	C250.069733,451.013062 249.534866,451.506531 249.000000,452.000000 
	C166.412521,452.000000 83.825027,452.000000 1.000000,452.000000 
	C1.000000,382.645966 1.000000,313.291626 1.000000,243.468658 
z"/>
<path fill="#F5F4F4" opacity="1.000000" stroke="none" 
	d="
M264.000366,450.153870 
	C318.898926,447.585815 368.894867,430.781189 412.958801,397.734039 
	C451.804291,368.600616 481.345520,332.320282 495.185883,284.920746 
	C498.378296,273.987640 499.971497,262.587616 502.650330,251.201233 
	C503.000000,317.933319 503.000000,384.866669 503.000000,452.000000 
	C423.645874,452.000000 344.291595,452.000000 264.468689,451.692322 
	C264.000122,450.974365 264.000244,450.564117 264.000366,450.153870 
z"/>
<path fill="#F5F4F4" opacity="1.000000" stroke="none" 
	d="
M503.000000,214.531342 
	C502.035278,208.692764 500.970642,202.398941 500.122223,196.076096 
	C494.859924,156.859146 479.501678,122.136223 454.134155,91.759254 
	C418.739838,49.375412 374.329346,21.443272 320.588898,8.771204 
	C307.059021,5.580840 293.143829,4.024386 279.202881,1.358534 
	C353.592041,1.000000 428.184052,1.000000 503.000000,1.000000 
	C503.000000,72.020737 503.000000,143.041718 503.000000,214.531342 
z"/>
<path fill="#F5F4F4" opacity="1.000000" stroke="none" 
	d="
M218.531342,1.000001 
	C212.250549,2.289387 205.511383,3.635648 198.749985,4.858942 
	C154.048355,12.946486 114.864914,32.614597 80.108871,61.494465 
	C53.896759,83.274933 32.662304,108.942245 18.702997,140.323563 
	C9.022234,162.086472 3.561130,184.845795 1.343741,208.764053 
	C1.000000,139.737915 1.000000,70.475830 1.000000,1.000000 
	C73.354088,1.000000 145.708389,1.000000 218.531342,1.000001 
z"/>
<path fill="#F5F4F4" opacity="1.000000" stroke="none" 
	d="
M263.548492,450.083710 
	C264.000244,450.564117 264.000122,450.974365 264.000000,451.692322 
	C261.629425,452.000000 259.258881,452.000000 256.271912,451.786224 
	C255.078186,451.112061 254.500824,450.651642 253.923477,450.191254 
	C256.981201,450.132019 260.038910,450.072784 263.548492,450.083710 
z"/>
<path fill="#D5D5D5" opacity="1.000000" stroke="none" 
	d="
M253.570023,450.110260 
	C254.500824,450.651642 255.078186,451.112061 255.827759,451.786224 
	C253.958328,452.000000 251.916672,452.000000 249.437500,452.000000 
	C249.534866,451.506531 250.069733,451.013062 250.832367,450.355530 
	C251.778946,450.137421 252.497757,450.083344 253.570023,450.110260 
z"/>
<path fill="#F5F1F1" opacity="1.000000" stroke="none" 
	d="
M216.517090,13.373302 
	C235.741379,12.877298 254.653091,10.867004 273.291168,12.333777 
	C358.725464,19.057259 425.709412,57.063133 469.325165,132.207611 
	C483.329681,156.335587 490.228241,183.001205 492.079529,210.952560 
	C495.745758,266.307159 478.512299,314.624176 442.114075,355.864471 
	C416.827393,384.515076 385.555542,405.182526 349.822174,418.930817 
	C325.184235,428.410187 299.704254,433.802795 273.386200,436.255798 
	C233.217224,439.999786 194.431488,434.717285 157.015060,420.036194 
	C111.056091,402.003204 74.260750,372.119385 46.727310,331.256653 
	C27.811237,303.183075 17.201708,271.983582 14.853558,238.045029 
	C11.019261,182.626694 28.512402,134.519928 65.133377,93.371597 
	C99.740311,54.486282 142.609634,29.030972 193.556549,17.602163 
	C200.999039,15.932606 208.568039,14.826959 216.517090,13.373302 
M303.869507,26.542583 
	C277.434662,20.991322 250.728699,20.062840 224.009689,23.219019 
	C186.908905,27.601547 152.176407,39.350910 120.676476,59.674332 
	C65.713211,95.136040 31.591331,143.881088 25.797190,210.364807 
	C22.695967,245.949142 30.129478,279.441803 46.671608,310.881134 
	C67.620186,350.695129 99.576317,379.548889 139.184586,399.736237 
	C188.843353,425.046173 241.570450,432.120911 296.545837,423.194183 
	C345.911591,415.178345 388.884308,394.475372 424.433716,359.038055 
	C460.014832,323.569092 480.782318,281.397278 482.155487,230.512039 
	C483.066864,196.738358 476.227386,164.789673 459.613129,135.223480 
	C440.284119,100.826187 412.492065,74.813965 378.740906,54.921162 
	C355.681915,41.330303 330.983307,31.925747 303.869507,26.542583 
z"/>
<path fill="#FE3C3C" opacity="1.000000" stroke="none" 
	d="
M304.280548,26.659521 
	C330.983307,31.925747 355.681915,41.330303 378.740906,54.921162 
	C412.492065,74.813965 440.284119,100.826187 459.613129,135.223480 
	C476.227386,164.789673 483.066864,196.738358 482.155487,230.512039 
	C480.782318,281.397278 460.014832,323.569092 424.433716,359.038055 
	C388.884308,394.475372 345.911591,415.178345 296.545837,423.194183 
	C241.570450,432.120911 188.843353,425.046173 139.184586,399.736237 
	C99.576317,379.548889 67.620186,350.695129 46.671608,310.881134 
	C30.129478,279.441803 22.695967,245.949142 25.797190,210.364807 
	C31.591331,143.881088 65.713211,95.136040 120.676476,59.674332 
	C152.176407,39.350910 186.908905,27.601547 224.009689,23.219019 
	C250.728699,20.062840 277.434662,20.991322 304.280548,26.659521 
M428.338013,113.166443 
	C411.186432,93.005127 390.247681,77.501381 367.562347,64.263756 
	C334.089966,44.731499 298.004639,33.813206 259.148346,33.258148 
	C221.502136,32.720375 185.816849,41.648342 151.474457,56.737194 
	C105.769424,76.818398 71.374542,108.571098 50.408058,154.176468 
	C35.901623,185.730225 32.638309,218.908051 37.104115,253.069672 
	C37.717808,257.764160 40.262318,260.049103 45.144779,259.994019 
	C54.974609,259.883087 64.806999,260.025055 74.638115,259.994019 
	C82.672112,259.968628 90.476692,258.141296 96.535370,252.967621 
	C104.649017,246.039124 112.207497,246.944107 120.734085,251.742355 
	C126.769547,255.138718 133.189453,257.992981 139.704651,260.352203 
	C145.135117,262.318634 150.074860,260.000885 152.800430,254.982071 
	C154.131851,252.530472 155.130707,249.815445 155.803406,247.101501 
	C164.260696,212.981537 172.592010,178.830353 181.039597,144.707977 
	C185.221619,127.815491 189.477722,110.939819 193.906570,94.110817 
	C195.472260,88.161438 198.364197,82.980408 204.834473,80.912582 
	C216.356812,77.230194 225.275162,83.201767 227.975220,96.636703 
	C234.382263,128.516586 240.673035,160.419830 247.080154,192.299698 
	C248.356277,198.649261 249.941681,204.936707 251.384445,211.252792 
	C251.855255,211.235352 252.326065,211.217911 252.796890,211.200470 
	C253.532883,208.906158 254.422897,206.648514 254.979218,204.311417 
	C258.012695,191.567841 260.961426,178.804092 263.944397,166.048477 
	C266.286682,156.032639 268.511108,145.987000 271.022339,136.013626 
	C273.043274,127.987610 279.133240,122.448471 285.972443,121.913086 
	C293.876007,121.294380 299.393250,124.972664 303.175323,133.518463 
	C304.179504,135.787521 305.128723,138.119690 305.746216,140.514877 
	C310.215973,157.851761 314.620239,175.205643 318.994232,192.567017 
	C323.772095,211.531570 328.451691,230.520966 333.259399,249.477905 
	C335.866821,259.759094 346.691925,262.660370 354.246094,255.006271 
	C356.543243,252.678711 358.260559,249.723312 359.985748,246.898117 
	C363.883362,240.515442 369.351257,236.268295 376.415314,233.870819 
	C393.758362,227.984772 406.136139,231.962311 416.227448,246.968811 
	C420.180664,252.847519 425.668488,255.902252 432.590454,255.865601 
	C441.390045,255.819031 450.193726,255.391861 458.982574,254.896881 
	C464.355316,254.594299 467.698822,252.035950 467.896667,246.677124 
	C468.361847,234.078033 468.853546,221.390594 467.911438,208.845779 
	C465.218903,172.991211 452.028503,141.228256 428.338013,113.166443 
M226.191711,262.195343 
	C220.848892,235.301239 215.506088,208.407135 210.163284,181.513016 
	C209.678635,181.460205 209.193985,181.407379 208.709335,181.354553 
	C207.480484,184.344528 205.874237,187.238358 205.084061,190.340088 
	C199.969467,210.416702 195.034943,230.539185 190.036987,250.645538 
	C186.036285,266.739990 182.141602,282.861908 177.986618,298.916443 
	C175.091156,310.104248 168.825058,314.845001 158.470123,314.141602 
	C151.277573,313.653015 147.259155,308.702454 144.064865,303.131134 
	C141.231537,298.189453 137.324432,295.207886 131.924683,293.557800 
	C126.386467,291.865448 120.909355,289.852417 115.623306,287.491974 
	C110.979408,285.418243 107.311691,286.301727 103.022308,288.773071 
	C98.694725,291.266418 93.675598,293.583313 88.816689,293.920593 
	C78.230247,294.655396 67.553070,294.061554 56.912983,294.064545 
	C55.031059,294.065063 53.149208,294.326752 50.381790,294.534241 
	C51.859333,297.901642 52.866493,300.486786 54.098248,302.960083 
	C68.836899,332.554169 90.426376,355.941742 117.727722,374.486664 
	C156.959488,401.135498 199.843155,416.073883 247.473190,416.369019 
	C269.658722,416.506531 291.471069,413.415955 312.967896,407.932922 
	C374.099030,392.340698 421.240692,358.612183 450.623169,301.859467 
	C452.533813,298.169006 453.933167,294.213867 455.922394,289.557861 
	C443.235779,289.557861 431.765350,289.169769 420.333038,289.663544 
	C408.125214,290.190796 397.744995,288.235657 392.780273,275.210327 
	C391.828705,272.713837 390.054626,270.530884 388.345764,267.678772 
	C386.318512,271.772095 384.746643,275.236969 382.925140,278.565216 
	C378.686951,286.309235 372.506439,291.978699 363.439880,292.316101 
	C349.324768,292.841370 335.171600,292.719360 321.044617,292.411346 
	C312.390991,292.222656 307.615021,286.726807 305.340088,278.792999 
	C304.472321,275.766602 303.733521,272.702667 302.961975,269.649261 
	C298.552002,252.196838 294.149902,234.742432 289.745117,217.288696 
	C289.316956,217.197647 288.888824,217.106583 288.460663,217.015518 
	C287.316772,220.159073 285.851410,223.225937 285.080231,226.458420 
	C279.308868,250.650406 273.693054,274.879456 267.988647,299.087524 
	C265.646759,309.025909 259.393036,314.751831 251.180634,314.626953 
	C242.215744,314.490631 236.016205,309.152954 233.816620,299.103973 
	C231.191193,287.109375 228.891998,275.043335 226.191711,262.195343 
M174.343765,222.819519 
	C169.079559,244.401260 163.686249,265.953186 158.686066,287.595947 
	C157.908890,290.959869 158.927643,294.738708 159.115891,298.325684 
	C159.943542,298.579529 160.771179,298.833405 161.598831,299.087250 
	C163.883377,296.115417 167.294937,293.466675 168.255661,290.115326 
	C172.230835,276.248505 175.460907,262.168182 178.971146,248.167877 
	C188.395752,210.578659 197.823715,172.990265 207.250336,135.401550 
	C209.189590,137.485504 210.377029,139.783203 210.928101,142.224533 
	C221.990906,191.235199 233.012360,240.255295 243.932312,289.297943 
	C244.953079,293.882263 246.955521,297.506836 251.775131,300.888123 
	C253.671143,296.785889 256.056702,293.290985 256.943146,289.450073 
	C266.415619,248.406677 275.646271,207.307480 284.971985,166.230103 
	C285.266968,164.930847 285.870453,163.701630 286.330139,162.439774 
	C288.035217,163.968811 288.671417,165.412735 289.021698,166.922974 
	C297.675140,204.232132 306.298950,241.548157 314.925659,278.863495 
	C315.613708,281.839600 316.429382,285.668457 320.149567,284.615875 
	C322.145996,284.051025 323.400024,280.342499 324.628693,277.873260 
	C325.043365,277.039825 324.406403,275.641357 324.152832,274.523193 
	C314.252930,230.868423 304.305084,187.224442 294.488251,143.551041 
	C293.499329,139.151535 292.002747,135.382706 286.987122,132.483719 
	C285.243378,135.376862 282.710724,138.023911 281.928497,141.114029 
	C272.772400,177.285278 263.862549,213.518982 254.934280,249.747696 
	C253.530701,255.443024 252.358795,261.195435 251.079773,266.921478 
	C249.314163,265.108978 248.560410,263.331360 248.145966,261.477905 
	C237.653900,214.555817 227.201614,167.624847 216.729843,120.698219 
	C215.300766,114.294159 213.830719,107.892509 207.830063,102.777916 
	C205.678055,106.949333 202.934921,110.530518 201.896027,114.551971 
	C192.649918,150.343094 183.705032,186.212021 174.343765,222.819519 
z"/>
<path fill="#F5F4F4" opacity="1.000000" stroke="none" 
	d="
M428.575500,113.430878 
	C452.028503,141.228256 465.218903,172.991211 467.911438,208.845779 
	C468.853546,221.390594 468.361847,234.078033 467.896667,246.677124 
	C467.698822,252.035950 464.355316,254.594299 458.982574,254.896881 
	C450.193726,255.391861 441.390045,255.819031 432.590454,255.865601 
	C425.668488,255.902252 420.180664,252.847519 416.227448,246.968811 
	C406.136139,231.962311 393.758362,227.984772 376.415314,233.870819 
	C369.351257,236.268295 363.883362,240.515442 359.985748,246.898117 
	C358.260559,249.723312 356.543243,252.678711 354.246094,255.006271 
	C346.691925,262.660370 335.866821,259.759094 333.259399,249.477905 
	C328.451691,230.520966 323.772095,211.531570 318.994232,192.567017 
	C314.620239,175.205643 310.215973,157.851761 305.746216,140.514877 
	C305.128723,138.119690 304.179504,135.787521 303.175323,133.518463 
	C299.393250,124.972664 293.876007,121.294380 285.972443,121.913086 
	C279.133240,122.448471 273.043274,127.987610 271.022339,136.013626 
	C268.511108,145.987000 266.286682,156.032639 263.944397,166.048477 
	C260.961426,178.804092 258.012695,191.567841 254.979218,204.311417 
	C254.422897,206.648514 253.532883,208.906158 252.796890,211.200470 
	C252.326065,211.217911 251.855255,211.235352 251.384445,211.252792 
	C249.941681,204.936707 248.356277,198.649261 247.080154,192.299698 
	C240.673035,160.419830 234.382263,128.516586 227.975220,96.636703 
	C225.275162,83.201767 216.356812,77.230194 204.834473,80.912582 
	C198.364197,82.980408 195.472260,88.161438 193.906570,94.110817 
	C189.477722,110.939819 185.221619,127.815491 181.039597,144.707977 
	C172.592010,178.830353 164.260696,212.981537 155.803406,247.101501 
	C155.130707,249.815445 154.131851,252.530472 152.800430,254.982071 
	C150.074860,260.000885 145.135117,262.318634 139.704651,260.352203 
	C133.189453,257.992981 126.769547,255.138718 120.734085,251.742355 
	C112.207497,246.944107 104.649017,246.039124 96.535370,252.967621 
	C90.476692,258.141296 82.672112,259.968628 74.638115,259.994019 
	C64.806999,260.025055 54.974609,259.883087 45.144779,259.994019 
	C40.262318,260.049103 37.717808,257.764160 37.104115,253.069672 
	C32.638309,218.908051 35.901623,185.730225 50.408058,154.176468 
	C71.374542,108.571098 105.769424,76.818398 151.474457,56.737194 
	C185.816849,41.648342 221.502136,32.720375 259.148346,33.258148 
	C298.004639,33.813206 334.089966,44.731499 367.562347,64.263756 
	C390.247681,77.501381 411.186432,93.005127 428.575500,113.430878 
z"/>
<path fill="#F5F4F4" opacity="1.000000" stroke="none" 
	d="
M226.321594,262.601807 
	C228.891998,275.043335 231.191193,287.109375 233.816620,299.103973 
	C236.016205,309.152954 242.215744,314.490631 251.180634,314.626953 
	C259.393036,314.751831 265.646759,309.025909 267.988647,299.087524 
	C273.693054,274.879456 279.308868,250.650406 285.080231,226.458420 
	C285.851410,223.225937 287.316772,220.159073 288.460663,217.015518 
	C288.888824,217.106583 289.316956,217.197647 289.745117,217.288696 
	C294.149902,234.742432 298.552002,252.196838 302.961975,269.649261 
	C303.733521,272.702667 304.472321,275.766602 305.340088,278.792999 
	C307.615021,286.726807 312.390991,292.222656 321.044617,292.411346 
	C335.171600,292.719360 349.324768,292.841370 363.439880,292.316101 
	C372.506439,291.978699 378.686951,286.309235 382.925140,278.565216 
	C384.746643,275.236969 386.318512,271.772095 388.345764,267.678772 
	C390.054626,270.530884 391.828705,272.713837 392.780273,275.210327 
	C397.744995,288.235657 408.125214,290.190796 420.333038,289.663544 
	C431.765350,289.169769 443.235779,289.557861 455.922394,289.557861 
	C453.933167,294.213867 452.533813,298.169006 450.623169,301.859467 
	C421.240692,358.612183 374.099030,392.340698 312.967896,407.932922 
	C291.471069,413.415955 269.658722,416.506531 247.473190,416.369019 
	C199.843155,416.073883 156.959488,401.135498 117.727722,374.486664 
	C90.426376,355.941742 68.836899,332.554169 54.098248,302.960083 
	C52.866493,300.486786 51.859333,297.901642 50.381790,294.534241 
	C53.149208,294.326752 55.031059,294.065063 56.912983,294.064545 
	C67.553070,294.061554 78.230247,294.655396 88.816689,293.920593 
	C93.675598,293.583313 98.694725,291.266418 103.022308,288.773071 
	C107.311691,286.301727 110.979408,285.418243 115.623306,287.491974 
	C120.909355,289.852417 126.386467,291.865448 131.924683,293.557800 
	C137.324432,295.207886 141.231537,298.189453 144.064865,303.131134 
	C147.259155,308.702454 151.277573,313.653015 158.470123,314.141602 
	C168.825058,314.845001 175.091156,310.104248 177.986618,298.916443 
	C182.141602,282.861908 186.036285,266.739990 190.036987,250.645538 
	C195.034943,230.539185 199.969467,210.416702 205.084061,190.340088 
	C205.874237,187.238358 207.480484,184.344528 208.709335,181.354553 
	C209.193985,181.407379 209.678635,181.460205 210.163284,181.513016 
	C215.506088,208.407135 220.848892,235.301239 226.321594,262.601807 
z"/>
<path fill="#F5F1F1" opacity="1.000000" stroke="none" 
	d="
M174.507553,222.438751 
	C183.705032,186.212021 192.649918,150.343094 201.896027,114.551971 
	C202.934921,110.530518 205.678055,106.949333 207.830063,102.777916 
	C213.830719,107.892509 215.300766,114.294159 216.729843,120.698219 
	C227.201614,167.624847 237.653900,214.555817 248.145966,261.477905 
	C248.560410,263.331360 249.314163,265.108978 251.079773,266.921478 
	C252.358795,261.195435 253.530701,255.443024 254.934280,249.747696 
	C263.862549,213.518982 272.772400,177.285278 281.928497,141.114029 
	C282.710724,138.023911 285.243378,135.376862 286.987122,132.483719 
	C292.002747,135.382706 293.499329,139.151535 294.488251,143.551041 
	C304.305084,187.224442 314.252930,230.868423 324.152832,274.523193 
	C324.406403,275.641357 325.043365,277.039825 324.628693,277.873260 
	C323.400024,280.342499 322.145996,284.051025 320.149567,284.615875 
	C316.429382,285.668457 315.613708,281.839600 314.925659,278.863495 
	C306.298950,241.548157 297.675140,204.232132 289.021698,166.922974 
	C288.671417,165.412735 288.035217,163.968811 286.330139,162.439774 
	C285.870453,163.701630 285.266968,164.930847 284.971985,166.230103 
	C275.646271,207.307480 266.415619,248.406677 256.943146,289.450073 
	C256.056702,293.290985 253.671143,296.785889 251.775131,300.888123 
	C246.955521,297.506836 244.953079,293.882263 243.932312,289.297943 
	C233.012360,240.255295 221.990906,191.235199 210.928101,142.224533 
	C210.377029,139.783203 209.189590,137.485504 207.250336,135.401550 
	C197.823715,172.990265 188.395752,210.578659 178.971146,248.167877 
	C175.460907,262.168182 172.230835,276.248505 168.255661,290.115326 
	C167.294937,293.466675 163.883377,296.115417 161.598831,299.087250 
	C160.771179,298.833405 159.943542,298.579529 159.115891,298.325684 
	C158.927643,294.738708 157.908890,290.959869 158.686066,287.595947 
	C163.686249,265.953186 169.079559,244.401260 174.507553,222.438751 
z"/>
</svg>