<svg xmlns="http://www.w3.org/2000/svg" viewBox="0 0 248.42 80.21"><defs><style>.cls-1,.cls-2{fill:#02b2b0;}.cls-2{stroke:#02b2b0;stroke-miterlimit:10;}</style></defs><g id="Layer_2" data-name="Layer 2"><g id="Layer_1-2" data-name="Layer 1"><path class="cls-1" d="M19.38,20.24c0-4.12.07-8.62.14-11.2h-.08c-.82,4.3-2.4,12.82-4.05,20.33H12.06C10.83,22.53,9.19,13.43,8.4,9H8.29c.13,2.72.24,7.71.24,11.74v8.65H5.18V6h5.43c1.45,6.76,2.78,14.1,3.28,17.39h0c.46-2.95,2.2-10.91,3.64-17.39h5.32V29.37H19.38Z" transform="translate(-2.57 -5.63)"/><path class="cls-1" d="M49.15,18.69H41.54v7.53h8.51l-.46,3.15H38V6H49.51V9.18h-8v6.34h7.61Z" transform="translate(-2.57 -5.63)"/><path class="cls-1" d="M63.52,6h5.79c5.81,0,8.17,3.82,8.17,11.16,0,7.91-2.22,12.22-8.51,12.22H63.52Zm3.67,20.38H68.9c3.62,0,4.82-2.78,4.82-9.18,0-5.66-1.2-8.15-4.78-8.15H67.19Z" transform="translate(-2.57 -5.63)"/><path class="cls-1" d="M95.36,6V29.37H91.72V6Z" transform="translate(-2.57 -5.63)"/><path class="cls-1" d="M123.65,22.68c-.11,1.24-.6,7.07-6.81,7.07-6.5,0-7.17-6.09-7.17-12.15,0-7.31,2.08-12,7.43-12,6,0,6.43,5.3,6.52,7H120c-.06-.79-.15-3.9-3-3.9-3,0-3.6,3.83-3.6,8.91,0,4.59.47,9,3.47,9,2.71,0,3-3,3.1-4Z" transform="translate(-2.57 -5.63)"/><path class="cls-1" d="M140.91,23l-1.35,6.41h-3.64L141.42,6h4.71l5.6,23.38H147.9L146.55,23Zm5-3.17c-1-4.91-1.8-8.31-2.15-10.42h-.09c-.3,2.11-1.11,5.86-2.07,10.42Z" transform="translate(-2.57 -5.63)"/><path class="cls-1" d="M164.74,6h3.64V26.25h8.12l-.39,3.12H164.74Z" transform="translate(-2.57 -5.63)"/><path class="cls-1" d="M31.51,69.07c0,8.78-4.69,16.77-14.61,16.77-9,0-14.33-7.3-14.33-16.54,0-9.09,5.1-16.53,14.65-16.53C26,52.77,31.51,59.7,31.51,69.07Zm-26.27.1c0,7.39,4.08,14.37,11.8,14.37,8.31,0,11.8-6.8,11.8-14.42S24.89,55.07,17.13,55.07C8.86,55.07,5.24,61.91,5.24,69.17Z" transform="translate(-2.57 -5.63)"/><path class="cls-1" d="M41.1,70.36v15H38.58V53.23H50.11c6.33,0,9.69,3.4,9.69,8.45a7.28,7.28,0,0,1-6,7.53c3.31.78,5.51,2.94,5.51,8.41v1.24c0,2.25-.18,5.28.42,6.52H57.18c-.6-1.38-.46-3.95-.46-6.71v-.82c0-5.29-1.56-7.49-7.72-7.49Zm0-2.3h7.77c5.65,0,8.26-2.11,8.26-6.33,0-4-2.57-6.21-7.58-6.21H41.1Z" transform="translate(-2.57 -5.63)"/><path class="cls-1" d="M92.22,85.38H90.15a24.87,24.87,0,0,1-.32-5.15c-1.15,2.21-3.67,5.52-10.38,5.52-9.23,0-14-7-14-16.17,0-9.6,5.05-16.81,14.47-16.81,6.93,0,11.53,3.63,12.54,9.55H90c-1.38-4.55-4.55-7.25-10.15-7.25-8,0-11.72,6.24-11.72,14.37,0,7.35,3.54,14,11.39,14,8,0,10.29-5.24,10.29-12.36v-.36H79.45v-2.3H92.22Z" transform="translate(-2.57 -5.63)"/><path class="cls-1" d="M104.34,74.26l-4.08,11.12H97.73l11.81-32.15h2.93l12.31,32.15h-2.71l-4.18-11.12ZM117.07,72c-3.59-9.56-5.42-14.15-6.07-16.31h0c-.78,2.44-2.85,8.13-5.74,16.31Z" transform="translate(-2.57 -5.63)"/><path class="cls-1" d="M130.48,85.38V53.23h3.67c5,7.71,16.77,25.67,18.79,29.16h0c-.27-4.64-.23-9.37-.23-14.6V53.23h2.53V85.38h-3.4c-4.78-7.44-16.72-26.14-19-29.67h-.05c.23,4.22.18,8.91.18,14.74V85.38Z" transform="translate(-2.57 -5.63)"/><path class="cls-1" d="M167.22,53.23V85.38h-2.48V53.23Z" transform="translate(-2.57 -5.63)"/><path class="cls-1" d="M173.14,83.31,194,55.52H174.24V53.23h22.69v2.16L176.22,83.08h21.13l-.42,2.3H173.14Z" transform="translate(-2.57 -5.63)"/><path class="cls-1" d="M221.87,69.58h-16.4v13.5h18l-.36,2.3H203V53.23H222.7v2.29H205.47V67.28h16.4Z" transform="translate(-2.57 -5.63)"/><path class="cls-1" d="M232.3,70.36v15h-2.53V53.23H241.3c6.34,0,9.69,3.4,9.69,8.45a7.28,7.28,0,0,1-6,7.53c3.31.78,5.51,2.94,5.51,8.41v1.24c0,2.25-.18,5.28.42,6.52h-2.53c-.6-1.38-.46-3.95-.46-6.71v-.82c0-5.29-1.56-7.49-7.71-7.49Zm0-2.3h7.76c5.65,0,8.27-2.11,8.27-6.33,0-4-2.58-6.21-7.58-6.21H232.3Z" transform="translate(-2.57 -5.63)"/><line class="cls-2" x1="0.43" y1="37.78" x2="239.17" y2="37.78"/></g></g></svg>